<?xml version="1.0" encoding="utf-8"?>
<!-- Generator: Adobe Illustrator 24.3.0, SVG Export Plug-In . SVG Version: 6.00 Build 0)  -->
<svg version="1.1" id="Layer_1" xmlns:v="https://vecta.io/nano"
	 xmlns="http://www.w3.org/2000/svg" xmlns:xlink="http://www.w3.org/1999/xlink" x="0px" y="0px" viewBox="0 0 32 32"
	 style="enable-background:new 0 0 32 32;" xml:space="preserve">
<style type="text/css">
	.st0{fill:#F3F3FE;}
	.st1{fill:url(#SVGID_1_);}
	.st2{fill:url(#SVGID_2_);}
</style>
<circle class="st0" cx="16" cy="16" r="16"/>
<g id="_x33_sWhWP_1_">
	<g>
		<linearGradient id="SVGID_1_" gradientUnits="userSpaceOnUse" x1="4.9534" y1="22.58" x2="27.0466" y2="22.58">
			<stop  offset="0" style="stop-color:#6366F1"/>
			<stop  offset="0.5" style="stop-color:#8B5CF6"/>
			<stop  offset="1" style="stop-color:#D946EF"/>
		</linearGradient>
		<path class="st1" d="M11.6,17c0.1,0.8,0.6,1.3,1.2,1.6c1.1,0.6,2.3,0.8,3.5,0.7c0.9,0,1.7-0.2,2.5-0.6c0.2-0.1,0.5-0.3,0.7-0.4
			c0.5-0.4,0.7-0.6,0.9-1.4c0.4,0.1,0.8,0.1,1.2,0.2c3.4,0.9,5.7,4.1,5.4,7.6c-0.1,1.2-0.5,2.1-1.6,2.7c-0.5,0.3-1,0.4-1.5,0.5
			c-0.9,0.1-1.8,0.2-2.7,0.2c-3.7,0-7.3,0-11,0c-0.9,0-1.8-0.1-2.6-0.3C6,27.5,5.1,26.4,5,24.7c-0.3-3.8,2.4-7.2,6.2-7.8
			C11.3,17,11.4,17,11.6,17z"/>
		<linearGradient id="SVGID_2_" gradientUnits="userSpaceOnUse" x1="8.5187" y1="9.433" x2="23.4664" y2="9.433">
			<stop  offset="0" style="stop-color:#6366F1"/>
			<stop  offset="0.5" style="stop-color:#8B5CF6"/>
			<stop  offset="1" style="stop-color:#D946EF"/>
		</linearGradient>
		<path class="st2" d="M8.5,9.6c0-0.3,0-0.5,0-0.8C8.6,8,9,7.6,9.7,7.3c0.1,0,0.2-0.1,0.2-0.2c0-2.6,1.7-4.7,4-5.4
			c2.6-0.9,5.5-0.1,7.1,2c0.7,1,1.1,2.1,1.1,3.3c0,0.1,0,0.2,0.2,0.3C23,7.6,23.5,8.2,23.5,9c0,0.5,0,0.9,0,1.4
			c0,0.7-0.5,1.3-1.3,1.5c-0.1,0-0.2,0.1-0.2,0.2c-0.3,0.3-0.5,0.5-0.8,0.8C21.1,12.9,21,13,21,13.1c-0.4,1.2-1.1,2.4-2,3.3
			c-1.2,1.1-2.6,1.5-4.3,1c-0.9-0.3-1.6-0.9-2.2-1.6c-0.8-1-1.4-2.2-1.7-3.5c0-0.2-0.1-0.2-0.3-0.2c-0.9,0-1.7-0.5-1.9-1.3
			C8.5,10.3,8.5,9.9,8.5,9.6C8.5,9.6,8.5,9.6,8.5,9.6z M11.2,10.6C11.2,10.6,11.2,10.6,11.2,10.6c0,0.5,0.1,1,0.2,1.5
			c0.4,1.4,1,2.7,2.2,3.7c1.3,1.1,3,1.2,4.5,0.3c0.9-0.6,1.5-1.4,1.9-2.4c0,0,0-0.1,0.1-0.2c-0.1,0-0.1,0-0.1,0
			c-0.8,0.3-1.6,0.5-2.4,0.6c-0.2,0-0.5,0-0.7,0.2c-0.1,0.1-0.2,0.1-0.3,0.1c-0.3,0-0.7,0-1,0c-0.5,0-0.8-0.3-0.8-0.8
			c0-0.4,0.4-0.8,0.8-0.8c0.3,0,0.7,0,1,0c0.1,0,0.2,0,0.3,0.1c0.2,0.1,0.4,0.1,0.6,0.1c0.1,0,0.2,0,0.4,0c0.9-0.2,1.8-0.4,2.6-1
			c0.1-0.1,0.2-0.1,0.2-0.2c0.1-0.4,0.1-0.7,0.2-1.1c0,0,0,0-0.1,0c-0.2,0.1-0.5,0.2-0.7,0.3c0-0.5,0.1-1,0.1-1.5c0-0.5,0-1-0.2-1.5
			c-0.1-0.2-0.2-0.5-0.4-0.6c-0.1,0-0.2-0.1-0.3,0c-0.2,0.1-0.4,0.2-0.6,0.2c-1,0.3-2,0.6-3,0.5c-1.1-0.1-2.1-0.3-3-0.7
			c-0.2-0.1-0.3-0.1-0.4,0.1C12.2,7.5,12,7.8,12,8c-0.2,0.7-0.2,1.4-0.1,2.1c0,0.2,0,0.5,0.1,0.7C11.7,10.8,11.4,10.7,11.2,10.6z
			 M11.2,6.4c1.1-1.8,2.7-2.8,4.8-2.8c2.1,0,3.6,1,4.8,2.8c-0.3-2.2-2.5-3.9-4.9-3.9C13.2,2.6,11.4,4.5,11.2,6.4z"/>
	</g>
</g>
</svg>
