<?xml version="1.0" encoding="utf-8"?>
<!-- Generator: Adobe Illustrator 24.3.0, SVG Export Plug-In . SVG Version: 6.00 Build 0)  -->
<svg version="1.1" id="Layer_1" xmlns="http://www.w3.org/2000/svg" xmlns:xlink="http://www.w3.org/1999/xlink" x="0px" y="0px"
	 viewBox="0 0 101 79" style="enable-background:new 0 0 101 79;" xml:space="preserve">
<style type="text/css">
	.st0{opacity:0.1;fill-rule:evenodd;clip-rule:evenodd;fill:#766DF4;enable-background:new    ;}
	.st1{fill:#766DF4;fill-opacity:0.1;}
	.st2{fill:#766DF4;}
</style>
<desc>Created with Sketch.</desc>
<path id="Oval" class="st0" d="M37.3,74.9c17.9,8.7,53.2,3.1,61.9-14.8S82.1,22,64.2,13.3s-42-21.7-50.7-3.9S19.4,66.2,37.3,74.9z"
	/>
<path id="Path" class="st1" d="M5.7,25.5H3.2c-1,0-1.7,0.8-1.7,1.7v32H4v-32C4,26.3,4.8,25.5,5.7,25.5z"/>
<path class="st1" d="M4,64.9v-4.2H1.5v4.2c0,1,0.8,1.7,1.7,1.7h2.5C4.8,66.7,4,65.9,4,64.9L4,64.9z"/>
<path class="st2" d="M27.3,74.3h-7.9c-0.4,0-0.7,0.3-0.7,0.7v3.2c0,0.4,0.3,0.7,0.7,0.7h22.9c0.4,0,0.7-0.3,0.7-0.7V75
	c0-0.4-0.3-0.7-0.7-0.7h-7.9v-6.1H58c1.8,0,3.2-1.4,3.2-3.2V27.2c0-1.8-1.4-3.2-3.2-3.2H3.2C1.4,24,0,25.4,0,27.2v37.7
	c0,1.8,1.4,3.2,3.2,3.2h24.1C27.3,68.1,27.3,74.3,27.3,74.3z M41.5,77.5H20.1v-1.7h21.4V77.5z M32.8,74.3h-4v-6.1h4V74.3z M3.2,25.5
	H58c1,0,1.7,0.8,1.7,1.7v32H1.5v-32C1.5,26.3,2.3,25.5,3.2,25.5z M1.5,64.9v-4.2h58.2v4.2c0,1-0.8,1.7-1.7,1.7H3.2
	C2.3,66.7,1.5,65.9,1.5,64.9L1.5,64.9z"/>
<g>
	<path class="st2" d="M44.7,42.1C44.7,42.1,44.7,42.1,44.7,42.1c0-0.5-0.1-1-0.1-1.4c-0.3-1.7-0.9-3.4-1.8-4.9
		c-0.7-1.2-1.6-2.3-2.7-3.3c-0.9-0.8-1.8-1.4-2.9-2c-1.1-0.6-2.2-1-3.4-1.2c-0.5-0.1-1-0.2-1.5-0.2c-0.5,0-1,0-1.6,0
		c-0.2,0-0.4,0-0.6,0c-0.2,0-0.3,0-0.5,0c-0.7,0-1.5,0.2-2.2,0.3c-1.3,0.3-2.5,0.8-3.7,1.5c-0.9,0.5-1.7,1.2-2.5,1.9
		c-0.4,0.4-0.8,0.7-1.1,1.1c-0.7,0.8-1.3,1.6-1.7,2.5c-0.4,0.9-0.8,1.8-1.1,2.7c-0.3,1-0.5,1.9-0.5,2.9c0,0.6,0,1.2,0,1.8
		c0,0.7,0.1,1.4,0.3,2.1c0.3,1.3,0.8,2.5,1.4,3.7c0.5,1,1.2,1.9,1.9,2.7c0.9,0.9,1.8,1.7,2.9,2.4c1.1,0.7,2.3,1.2,3.5,1.6
		c1,0.3,2,0.5,3,0.5c0.6,0,1.2,0,1.8,0c0.6,0,1.3-0.1,1.9-0.3c1.4-0.3,2.8-0.8,4-1.6c1.4-0.8,2.6-1.8,3.7-3c0.7-0.8,1.2-1.6,1.7-2.5
		c0.6-1.1,1-2.2,1.3-3.4c0.1-0.6,0.2-1.1,0.3-1.7c0-0.2,0-0.4,0-0.6c0,0,0-0.1,0-0.1c0,0,0,0,0-0.1c0-0.1,0-0.1,0-0.2
		c0-0.1,0-0.1,0-0.2c0-0.2,0-0.4,0-0.6c0,0,0-0.1,0-0.1c0,0,0-0.1,0-0.1C44.7,42.3,44.7,42.2,44.7,42.1z M30.7,54.6
		c-6.4-0.1-11.6-5.3-11.6-11.7c0-6.7,5.4-11.7,11.7-11.7c6.5,0,11.7,5.2,11.7,11.7C42.5,49.5,37.2,54.7,30.7,54.6z"/>
	<path class="st2" d="M44.6,43.2c0-0.2,0-0.3,0-0.5c0,0,0-0.1,0-0.1C44.7,42.8,44.7,43,44.6,43.2C44.7,43.2,44.7,43.2,44.6,43.2z"/>
	<path class="st2" d="M44.6,43.2C44.7,43.2,44.7,43.2,44.6,43.2c0,0.1,0,0.1,0,0.2C44.6,43.3,44.7,43.3,44.6,43.2z"/>
	<path class="st2" d="M44.7,42.4c0,0,0-0.1,0-0.1C44.7,42.4,44.7,42.4,44.7,42.4z"/>
	<path class="st2" d="M44.7,43.6C44.6,43.6,44.6,43.6,44.7,43.6C44.7,43.6,44.7,43.6,44.7,43.6z"/>
	<path class="st2" d="M37,42.4c-0.1-0.1-0.3-0.2-0.4-0.3c-2.4-1.4-4.8-2.9-7.2-4.2c-0.5-0.3-1-0.6-1.5-0.8c-0.4-0.2-0.9,0-0.9,0.5
		c0,0.3,0,0.6,0,0.8c0,1.5,0,3,0,4.6c0,1.5,0,3,0,4.6c0,0.3,0,0.6,0.1,0.9c0.1,0.4,0.5,0.6,0.9,0.4c0.1-0.1,0.3-0.2,0.4-0.2
		c2.6-1.4,5.1-2.9,7.6-4.4c0.4-0.2,0.7-0.5,1.1-0.7C37.4,43.2,37.4,42.6,37,42.4z"/>
</g>
</svg>
