<svg xmlns="http://www.w3.org/2000/svg" viewBox="0 0 92.93 61.27"><defs><style>.cls-1{fill:#02bffd;}.cls-2{fill:#0d75fc;}</style></defs><title>Asset 1</title><g id="Layer_2" data-name="Layer 2"><g id="Layer_1-2" data-name="Layer 1"><path class="cls-1" d="M92.93,0l-41.4,47.3c1.55,0,2.87,0,4.19,0,3.48-.07,7-.18,10.42-.24a3.08,3.08,0,0,0,2.22-.92c2.55-2.4,5.17-4.74,7.73-7.14.51-.47.77-.48,1.17.11C82,46.18,86.6,53.36,91.21,60.53a1.38,1.38,0,0,1,0,.37l-67.73.37c-.13-.55.3-.76.52-1Q43.18,37.52,62.33,14.82,68.27,7.8,74.2.76A1.56,1.56,0,0,1,75.45,0C81.19,0,86.94,0,92.93,0Z"/><path class="cls-2" d="M41.5,14.05H29.65a2.63,2.63,0,0,1-.48,0c-2.64-.5-4.5.75-6.25,2.56s-3.84,3.47-5.71,5.27c-.68.66-1,.6-1.49-.17Q9.6,12.17,3.43,2.66c-.5-.79-1-1.59-1.57-2.52H69.77c0,.5-.35.71-.59,1L18.69,60.33a1.55,1.55,0,0,1-1.26.74Q9,61,.54,61.05A3.27,3.27,0,0,1,0,60.92Z"/></g></g></svg>