<svg xmlns:cc="http://creativecommons.org/ns#" xmlns:dc="http://purl.org/dc/elements/1.1/" xmlns:rdf="http://www.w3.org/1999/02/22-rdf-syntax-ns#" xmlns:svg="http://www.w3.org/2000/svg" xmlns="http://www.w3.org/2000/svg" xmlns:xlink="http://www.w3.org/1999/xlink" id="Layer_1" x="0px" y="0px" viewBox="0 0 1920 1080" style="enable-background:new 0 0 1920 1080;" xml:space="preserve">
<style type="text/css">
	.st0{fill:#FFFFFF;}
	.st1{fill:#E93442;}
</style>
<g>
	<path class="st0" d="M578.6,664.9c-11.6-2.6-23.9-4.3-36.3-4.3c-21.3,0-40.6,3.7-54.9,9.6c-1.6,0.8-2.7,2.4-2.7,4.3   c0,0.7,0.1,1.4,0.4,2c1.7,4.9-1.1,10.2-14.9,13.2c-20.5,4.5-33.4,25.6-40.8,32.6c-8.7,8.2-33.2,13.3-29.5,8.4   c2.9-3.8,13.9-15.8,20.6-28.7c6-11.6,11.4-14.9,18.7-25.9c2.2-3.2,10.5-14.6,13-23.6c2.7-8.8,1.8-19.8,2.9-24.4   c1.5-6.6,7.7-20.7,8.1-28.8c0.3-4.5-19,6.5-28.1,6.5s-18-5.5-26.2-5.8c-10.1-0.5-16.6,7.8-25.7,6.3c-5.2-0.8-9.6-5.4-18.7-5.7   c-13-0.5-28.8,7.2-58.6,6.2c-29.3-1-56.3-37-60-42.7c-4.3-6.7-9.6-6.7-15.4-1.4c-5.8,5.2-12.9,1.1-14.9-2.4   c-3.8-6.7-14.1-26.3-30-30.5c-22-5.7-33.1,12.2-31.7,26.4c1.5,14.4,10.8,18.5,15.1,26.2c4.3,7.7,6.5,12.6,14.6,16   c5.8,2.4,7.9,5.9,6.2,10.7c-1.5,4.1-7.5,5.1-11.5,5.3c-8.4,0.4-14.2-1.9-18.5-4.6c-5-3.2-9-7.6-13.4-15.1c-5-8.3-13-11.8-22.2-11.8   c-4.4,0-8.5,1.2-12.2,3c-14.5,7.6-31.7,12-50.2,12l-20.9,0C81.4,716.5,193.9,802,326.3,802C432,802,525,747.5,578.6,664.9"></path>
	<path d="M578.6,665c-11.6-2.7-23.9-4.4-36.3-4.4c-21.3,0-40.6,3.7-54.9,9.6c-1.6,0.8-2.7,2.4-2.7,4.3c0,0.7,0.1,1.4,0.4,1.9   c1.7,4.9-1.1,10.2-14.9,13.3c-20.5,4.5-33.4,25.6-40.8,32.6c-8.7,8.3-33.2,13.3-29.5,8.4c2.9-3.8,13.9-15.8,20.6-28.8   c6-11.5,11.4-14.9,18.7-25.9c2.2-3.2,10.5-14.6,13-23.6c2.7-8.8,1.8-19.8,2.9-24.4c1.5-6.6,7.7-20.7,8.1-28.8   c0.3-4.5-19,6.5-28.1,6.5s-18-5.5-26.2-5.8c-10.1-0.5-16.6,7.8-25.7,6.3c-5.2-0.8-9.6-5.4-18.7-5.7c-13-0.5-28.8,7.2-58.6,6.2   c-29.3-1-56.3-37-60-42.7c-4.3-6.7-9.6-6.7-15.4-1.4c-5.8,5.3-12.9,1.1-14.9-2.4c-3.8-6.7-14.1-26.3-30-30.5   c-22-5.7-33.1,12.2-31.7,26.4c1.5,14.4,10.8,18.5,15.1,26.1c4.3,7.7,6.5,12.6,14.6,16c5.8,2.4,7.9,5.9,6.2,10.7   c-1.5,4.1-7.5,5.1-11.5,5.3c-8.4,0.4-14.2-1.9-18.5-4.6c-5-3.1-9-7.6-13.4-15c-5-8.2-13-11.8-22.2-11.8c-4.4,0-8.5,1.2-12.2,3   c-14.5,7.6-31.7,12-50.2,12H41.4c-10.2-30.1-15.7-62.5-15.7-96c0-165.9,134.6-300.4,300.6-300.4c166,0,300.6,134.5,300.6,300.4   C626.8,561.9,609.1,617.9,578.6,665"></path>
	<path d="M392.5,637.4c1.5,1.5,4.2,6.6,1,13c-1.8,3.4-3.8,5.8-7.3,8.6c-4.3,3.4-12.5,7.3-23.8,0.1c-6.1-3.8-6.5-5.2-14.9-4.1   c-6,0.8-8.4-5.3-6.2-10.3c2.2-5,11-9.1,22.1-2.6c5,2.9,12.7,9.1,19.5,3.6c2.8-2.2,4.5-3.7,8.4-8.2c0.2-0.2,0.4-0.3,0.7-0.3   C392.1,637.2,392.3,637.3,392.5,637.4"></path>
	<path class="st1" d="M302.9,344.3c-34.7,2.5-38.3,6.2-44.8,13.1c-9.2,9.8-21.3-12.6-21.3-12.6c-7.3-1.5-16-13.2-11.3-24.1   c4.7-10.8,13.3-7.6,16-4.2c3.3,4.1,10.3,10.8,19.4,10.5c9.1-0.2,19.6-2.2,34.3-2.2c14.9,0,24.8,5.5,25.4,10.3   C321.1,339.2,319.4,343.1,302.9,344.3 M339.3,287h-0.2c-0.5,0-1-0.4-1-0.9c0-0.4,0.2-0.7,0.5-0.8c6.7-3.5,16.8-6.4,28.3-7.5   c3.4-0.4,6.8-0.6,10.1-0.6h1.7c19.3,0.4,34.7,8.1,34.5,17.1c-0.2,9-16,15.9-35.3,15.5c-6.2-0.2-12.1-1.1-17.1-2.5   c-0.6-0.1-1-0.7-1-1.3c0-0.6,0.4-1.1,1.1-1.3c12-2.8,20.1-7.3,19.5-11.6c-0.8-5.7-16.5-8.8-35.1-6.9   C343.3,286.4,341.3,286.6,339.3,287 M495.9,421.7c-3,10-7.2,22.7-26,32.4c-2.7,1.4-3.8-0.9-2.5-3.1c7.1-12.1,8.4-15.1,10.4-19.8   c2.9-7,4.4-16.9-1.3-37.5c-11.3-40.7-34.9-95-52-112.6c-16.5-17-46.5-21.8-73.6-14.9c-10,2.5-29.5,12.7-65.7,4.5   c-62.6-14.1-71.9,17.2-75.5,30.9c-3.6,13.7-12.3,52.5-12.3,52.5c-2.9,15.8-6.6,43.3,90.6,61.9c45.3,8.6,47.6,20.3,49.6,28.7   c3.6,15.1,9.3,23.7,15.8,28c6.5,4.3,0,7.9-7.2,8.6c-19.3,2-90.6-18.4-132.8-42.4c-34.5-21.1-35.1-40.1-27.2-56.2   c-52.2-5.6-91.3,4.9-98.4,29.6C75.7,454.7,181,527,301,563.3c125.9,38.1,255.3,11.5,269.7-67.6C577.2,459.8,547,433.2,495.9,421.7"></path>
	<g id="g3880">
		<path d="M623.8,648.9h2.7l4.1,6.7h2.6l-4.4-6.8c2.3-0.3,4-1.5,4-4.3c0-3.1-1.8-4.4-5.5-4.4h-5.9v15.5h2.3    C623.8,655.6,623.8,648.9,623.8,648.9z M623.8,646.9v-4.8h3.2c1.6,0,3.4,0.4,3.4,2.3c0,2.4-1.8,2.5-3.7,2.5H623.8z"></path>
		<path d="M641.8,647.9c0,8.4-6.8,15.2-15.2,15.2s-15.2-6.8-15.2-15.2c0-8.4,6.8-15.2,15.2-15.2S641.8,639.5,641.8,647.9     M626.6,635.4c-6.9,0-12.5,5.6-12.5,12.5c0,6.9,5.6,12.4,12.5,12.4c6.9,0,12.5-5.6,12.5-12.4C639.1,641,633.5,635.4,626.6,635.4"></path>
	</g>
	<path d="M780.1,520.6c0-27.6-0.6-47.8-1.7-66.1h45.1l2,39.1h1.5c10.1-29,34.2-43.8,56.4-43.8c5.1,0,8,0.2,12.2,1.1v49   c-4.9-1-9.4-1.5-15.7-1.5c-24.8,0-42,15.8-46.7,39.4c-0.9,4.6-1.3,10.1-1.3,15.7v106.7h-52.1C779.6,660.3,780.1,520.6,780.1,520.6z   "></path>
	<path d="M958.3,571.4c1.4,37.3,30.2,53.6,63.6,53.6c23.9,0,41.1-3.8,56.8-9.5l7.7,35.8c-17.6,7.5-42.1,13-71.9,13   c-66.9,0-106.1-41.3-106.1-104.3c0-56.8,34.5-110.5,100.7-110.5c67,0,88.8,55,88.8,100.1c0,9.7-0.9,17.4-1.8,22.3L958.3,571.4z    M1048.9,535.1c0.2-19.1-8.1-50.2-42.9-50.2c-32.1,0-45.4,29.1-47.7,50.2C958.2,535.1,1048.9,535.1,1048.9,535.1z"></path>
	<path d="M1270.2,571c0,5.5-0.4,10.5-1.6,15.2c-5.2,22.5-23.7,37-45,37c-32.8,0-51.5-27.6-51.5-65.4c0-38.2,18.6-67.8,52.1-67.8   c23.4,0,40.2,16.5,44.8,36.6c0.9,4.2,1.2,9.4,1.2,13.6C1270.2,540.2,1270.2,571,1270.2,571z M1322.3,375.2l-52-14.7v116.1h-0.9   c-9.2-15.2-29.5-26.8-57.7-26.8c-49.5,0-92.6,41-92.3,109.9c0,63.3,38.9,105.2,88.1,105.2c29.7,0,54.6-14.1,66.9-37.2h0.9l2.3,32.6   h46.4c-1-14-1.7-36.6-1.7-57.7V375.2z"></path>
	<path d="M1460,449.6c-15.7,0-29.8,4.5-41.5,11.8c-12.3,7.2-22.2,18.3-28.2,29.7h-0.8v-96.3l-20.4-6v271.5h20.4v-126   c0-8.4,0.6-14.2,2.8-20.3c8.8-25.6,33-46.7,62.2-46.7c42.2,0,56.8,33.8,56.8,70.9v122h20.4V536   C1531.5,459.3,1479.5,449.6,1460,449.6"></path>
	<path d="M1714.5,611.3c0,16.3,0.7,33.1,3,48.9h-18.8l-3-29.5h-1c-10,15.9-33,34.2-65.7,34.2c-41.5,0-60.8-29.2-60.8-56.6   c0-47.5,42-76.2,125.9-75.3v-5.5c0-20.4-4-61-52.7-60.7c-18,0-36.8,4.8-51.7,15.3l-6.5-14.8c18.8-12.8,41.8-17.8,60.5-17.8   c59.5,0,70.8,44.6,70.8,81.4C1714.5,531,1714.5,611.3,1714.5,611.3z M1694.1,550.2c-44.9-1.3-104.2,5.5-104.2,55   c0,29.6,19.5,42.9,41,42.9c34.3,0,53.9-21.3,61-41.3c1.5-4.4,2.1-8.8,2.1-12.4C1694.1,594.4,1694.1,550.2,1694.1,550.2z"></path>
	<path d="M1795.6,408.9v45.4h58.8v16.5h-58.8v133.9c0,26.2,8.1,42.6,30.3,42.6c10.6,0,18.1-1.4,23.4-3.2l2.5,15.8   c-6.7,2.8-16,4.9-28.4,4.9c-15,0-27.5-4.7-35.6-14.6c-9.3-10.8-12.5-28.1-12.5-49.1V470.8h-34.8v-16.5h34.8v-37.9L1795.6,408.9z"></path>
	<g id="use3884" transform="translate(61.7183,0.0205)">
		<g>
			<path d="M1880.1,649.3h2.7l4.1,6.7h2.6l-4.4-6.8c2.3-0.3,4-1.5,4-4.3c0-3.1-1.8-4.4-5.5-4.4h-5.9V656h2.3     C1880.1,656,1880.1,649.3,1880.1,649.3z M1880.1,647.3v-4.8h3.2c1.6,0,3.4,0.4,3.4,2.3c0,2.4-1.8,2.5-3.7,2.5H1880.1z"></path>
			<path d="M1898.1,648.3c0,8.4-6.8,15.2-15.2,15.2c-8.4,0-15.2-6.8-15.2-15.2c0-8.4,6.8-15.2,15.2-15.2     C1891.3,633.1,1898.1,639.9,1898.1,648.3 M1882.9,635.8c-6.9,0-12.5,5.6-12.5,12.5c0,6.9,5.6,12.4,12.5,12.4     c6.9,0,12.5-5.6,12.5-12.4C1895.4,641.4,1889.8,635.8,1882.9,635.8"></path>
		</g>
	</g>
</g>
</svg>