<?xml version="1.0" encoding="utf-8"?>
<!-- Generator: Adobe Illustrator 24.3.0, SVG Export Plug-In . SVG Version: 6.00 Build 0)  -->
<svg version="1.1" id="Layer_1" xmlns="http://www.w3.org/2000/svg" xmlns:xlink="http://www.w3.org/1999/xlink" x="0px" y="0px"
	 viewBox="0 0 137 119.3" style="enable-background:new 0 0 137 119.3;" xml:space="preserve">
<style type="text/css">
	.st0{fill:#FFFFFF;}
	.st1{fill:#0188E1;}
	.st2{fill:none;stroke:#0188E1;stroke-width:5;stroke-miterlimit:10;}
	.st3{fill:#0188E1;stroke:#0188E1;stroke-miterlimit:10;}
</style>
<g>
	<g>
		<path class="st0" d="M68.5,117.5c-31.9,0-57.8-25.9-57.8-57.8S36.6,1.8,68.5,1.8s57.8,25.9,57.8,57.8S100.4,117.5,68.5,117.5z
			 M68.5,5.6c-29.8,0-54.1,24.2-54.1,54.1s24.2,54.1,54.1,54.1c29.8,0,54.1-24.2,54.1-54.1S98.3,5.6,68.5,5.6z"/>
	</g>
	<g>
		<polygon class="st0" points="51.4,82.2 33.1,82.2 33.1,32.2 104.8,32.2 104.8,80.3 101,80.3 101,36 36.8,36 36.8,78.4 51.4,78.4 
					"/>
	</g>
	<g>
		<ellipse class="st0" cx="86" cy="57.5" rx="9.7" ry="10.7"/>
	</g>
	<g>
		<path class="st0" d="M73.4,91.3h27.2c0,0-3.1-27.4-13.6-19.8c-2.7,2-5.4-4.5-10.7,1.7c-5.3,6.2-13.6,4.3-14.1,0.2h-6.7
			c0,0-2.9,10.5,17.2,10.5L73.4,91.3z"/>
	</g>
	<g>
		<path class="st0" d="M62,68.2h-6.6V54.1c0-1.8,1.5-3.3,3.3-3.3h0c1.8,0,3.3,1.5,3.3,3.3V68.2z"/>
	</g>
</g>
</svg>
