<?xml version="1.0" encoding="utf-8"?>
<!-- Generator: Adobe Illustrator 24.3.0, SVG Export Plug-In . SVG Version: 6.00 Build 0)  -->
<svg version="1.1" id="Layer_1" xmlns="http://www.w3.org/2000/svg" xmlns:xlink="http://www.w3.org/1999/xlink" x="0px" y="0px"
	 viewBox="0 0 63.6 65.7" style="enable-background:new 0 0 63.6 65.7;" xml:space="preserve">
<style type="text/css">
	.st0{fill:#494949;}
</style>
<g id="HjDBwK.tif">
	<g>
		<path class="st0" d="M0.5,45.4c0.1-0.4,0.2-0.9,0.3-1.3c1-3.4,3.2-5.7,6.5-6.8c4.2-1.4,8.1-0.6,11.5,2.4c0.2,0.1,0.3,0.3,0.5,0.5
			c-1.2,1.7-2.1,3.6-2.4,5.6c-0.2,1.5-0.2,3.1-0.2,4.6c0,1.1,0,2.1,0,3.3C16,53.8,15.2,54,14.4,54c-3.6,0.2-7.2,0.2-10.7-0.7
			c-0.7-0.2-1.4-0.4-2-0.7c-0.4-0.2-0.8-0.7-1.2-1C0.5,49.6,0.5,47.5,0.5,45.4z"/>
		<path class="st0" d="M39.4,39c-4.3,5.3-5,11-2.1,17.3c-0.4,0-0.7,0.1-1.1,0.1c-4.4,0.4-8.8,0.3-13.1-0.7c-1-0.2-2-0.7-3-1.1
			c-0.6-0.2-0.8-0.7-0.8-1.4c0-1.6,0.1-3.2,0-4.8c-0.2-5.6,3.6-9.5,7.6-10.9c4.2-1.5,8.2-1.2,12,1.1C39,38.8,39.2,38.9,39.4,39z"/>
		<path class="st0" d="M62.9,49.2c0,6.9-5.6,12.5-12.5,12.5C43.6,61.6,38,56,38,49.1c0-6.9,5.7-12.5,12.5-12.5
			C57.4,36.7,63,42.3,62.9,49.2z M60.5,49.2c0-5.6-4.4-10-10.1-10c-5.4,0-9.9,4.5-9.9,9.9c0,5.6,4.5,10.1,10.1,10
			C56,59.1,60.5,54.6,60.5,49.2z"/>
		<path class="st0" d="M39.2,27.9c0,4.2-3.4,7.5-7.6,7.5c-4.1,0-7.4-3.4-7.4-7.6c0-4.1,3.4-7.4,7.6-7.4
			C35.9,20.5,39.3,23.9,39.2,27.9z"/>
		<path class="st0" d="M18,28.6c0,3.8-3.1,6.9-6.8,6.9c-3.8,0-6.9-3-6.9-6.8c0-3.8,3.1-6.9,6.9-6.9C15,21.7,18,24.8,18,28.6z"/>
		<path class="st0" d="M59.2,29.1c-0.1,2.2-1.3,4.2-3.7,5.5c-0.3,0.1-0.7,0.2-1,0.1c-1.8-0.5-3.7-0.6-5.6-0.5
			c-0.2,0-0.6-0.1-0.8-0.3c-2.6-1.9-3.4-5.4-2-8.4c1.4-2.9,4.6-4.5,7.7-3.8C57,22.6,59.2,25.3,59.2,29.1z"/>
		<path class="st0" d="M41.5,16.7c-3.5,0-6.2-2.8-6.2-6.2c0-3.5,2.8-6.2,6.2-6.2c3.5,0,6.2,2.8,6.2,6.2
			C47.7,13.9,44.9,16.7,41.5,16.7z"/>
		<path class="st0" d="M28,10.5c0,3.5-2.8,6.3-6.3,6.2c-3.4,0-6.2-2.9-6.1-6.3c0-3.5,2.8-6.2,6.4-6.2C25.3,4.3,28,7.1,28,10.5z"/>
		<path class="st0" d="M26.7,19.3c-5.9,3.6-6.6,11.6-1.5,16.2c-1.4,0.9-2.8,1.8-4.1,2.8c-1.1-0.8-2.3-1.8-3.6-2.7
			c2.2-2.2,3.4-4.8,3-8.1c-0.4-3.2-2.1-5.6-4.9-7.2C18,17.9,22.9,17,26.7,19.3z"/>
		<path class="st0" d="M48,20.2c-5.3,2.9-6.8,10-2.6,14.7c-1.3,0.7-2.6,1.5-3.9,2.3c-0.1,0.1-0.4,0.1-0.5,0
			c-0.9-0.5-1.8-1.1-2.7-1.7c2.4-2.3,3.7-5.1,3.4-8.4c-0.3-3.4-2-5.9-4.9-7.7C39.9,17.2,45.3,17.6,48,20.2z"/>
		<path class="st0" d="M49.4,54.6c-2-1.5-3.9-2.9-5.9-4.4c0.5-0.7,1-1.3,1.5-2c1.4,1,2.7,2,4.1,3c2.2-2.6,4.5-5.2,6.7-7.8
			c0.6,0.6,1.3,1.1,1.9,1.6C54.9,48.2,52.2,51.4,49.4,54.6z"/>
	</g>
</g>
</svg>
